# xmcd
#
# Track frame offsets:
# 150
# 17120
# 28248
# 44765
# 66693
# 88305
# 110388
# 143967
# 163979
# 184712
# 208440
# 223934
# 234516
# 254881
#
# Disc length: 3598 seconds
#
#
# Revision: 0
# Processed by: cddbd v1.5.2PL0 Copyright (c) Steve Scherf et al.
# Submitted via: FreeRIP 2.90 
#
DISCID=ef0e0c0e
DTITLE=Ernest Lane - 72 Miles From Memphis
DYEAR=2008
DGENRE=Blues
TTITLE0=Lane's Got It
TTITLE1=Brand New Chevy
TTITLE2=Nobody's Bizz
TTITLE3=Back On My Feet
TTITLE4=Since I Met You, Baby
TTITLE5=Lil Girl
TTITLE6=72 Miles
TTITLE7=After Hours
TTITLE8=Everybody's Fool
TTITLE9=Sally
TTITLE10=Lookin' Good
TTITLE11=All Night Long
TTITLE12=The Truth
TTITLE13=Bonus Track: Brand New Chevy - Band Version
EXTD=Recorded in February 2008 in Los Angeles
EXTT0=
EXTT1=
EXTT2=
EXTT3=
EXTT4=
EXTT5=
EXTT6=
EXTT7=
EXTT8=
EXTT9=
EXTT10=
EXTT11=
EXTT12=
EXTT13=
PLAYORDER=
